<svg width="52" height="52" viewBox="0 0 52 52" fill="none" xmlns="http://www.w3.org/2000/svg">
<rect width="52" height="52" fill="#F5F5F5"/>
<path d="M-1188 -806C-1188 -807.105 -1187.1 -808 -1186 -808H250C251.104 -808 252 -807.105 252 -806V214C252 215.105 251.105 216 250 216H-1186C-1187.1 216 -1188 215.105 -1188 214V-806Z" fill="#E5E5E5"/>
<path d="M-1186 -807H250V-809H-1186V-807ZM251 -806V214H253V-806H251ZM250 215H-1186V217H250V215ZM-1187 214V-806H-1189V214H-1187ZM-1186 215C-1186.55 215 -1187 214.552 -1187 214H-1189C-1189 215.657 -1187.66 217 -1186 217V215ZM251 214C251 214.552 250.552 215 250 215V217C251.657 217 253 215.657 253 214H251ZM250 -807C250.552 -807 251 -806.552 251 -806H253C253 -807.657 251.657 -809 250 -809V-807ZM-1186 -809C-1187.66 -809 -1189 -807.657 -1189 -806H-1187C-1187 -806.552 -1186.55 -807 -1186 -807V-809Z" fill="black" fill-opacity="0.1"/>
<rect x="-748" y="-410" width="971" height="559" fill="#222222" fill-opacity="0.92"/>
<g filter="url(#filter0_dd_0_1)">
<mask id="path-4-outside-1_0_1" maskUnits="userSpaceOnUse" x="15" y="19" width="23" height="13" fill="black">
<rect fill="white" x="15" y="19" width="23" height="13"/>
<path d="M15.5073 20.5H15.9693V30.594H19.2173V31H15.5073V20.5ZM26.8953 20.626C25.9713 20.626 25.1267 20.864 24.3613 21.34C23.6053 21.8067 23.0033 22.4367 22.5553 23.23C22.1167 24.014 21.8973 24.8587 21.8973 25.764C21.8973 26.6787 22.1213 27.528 22.5693 28.312C23.0173 29.096 23.61 29.7213 24.3473 30.188C25.094 30.6453 25.8967 30.874 26.7553 30.874C27.2593 30.874 27.7073 30.8273 28.0993 30.734C28.5007 30.6407 28.8833 30.4913 29.2473 30.286V26.996H25.7753V26.59H29.7093V29.992L29.7373 29.978V30.496C29.2893 30.7667 28.8273 30.9627 28.3513 31.084C27.8847 31.2147 27.3713 31.28 26.8113 31.28C25.8313 31.28 24.9307 31.042 24.1093 30.566C23.288 30.0807 22.6347 29.418 22.1493 28.578C21.6733 27.7287 21.4353 26.7767 21.4353 25.722C21.4353 24.7047 21.6827 23.776 22.1773 22.936C22.6813 22.096 23.3487 21.4333 24.1793 20.948C25.0193 20.4627 25.9107 20.22 26.8533 20.22C27.5067 20.22 28.0247 20.2807 28.4073 20.402C28.79 20.514 29.2333 20.7147 29.7373 21.004V21.522C29.2613 21.1953 28.818 20.9667 28.4073 20.836C28.006 20.696 27.502 20.626 26.8953 20.626ZM33.5914 20.5H34.0534V30.594H37.3014V31H33.5914V20.5Z"/>
</mask>
<path d="M15.5073 20.5H15.9693V30.594H19.2173V31H15.5073V20.5ZM26.8953 20.626C25.9713 20.626 25.1267 20.864 24.3613 21.34C23.6053 21.8067 23.0033 22.4367 22.5553 23.23C22.1167 24.014 21.8973 24.8587 21.8973 25.764C21.8973 26.6787 22.1213 27.528 22.5693 28.312C23.0173 29.096 23.61 29.7213 24.3473 30.188C25.094 30.6453 25.8967 30.874 26.7553 30.874C27.2593 30.874 27.7073 30.8273 28.0993 30.734C28.5007 30.6407 28.8833 30.4913 29.2473 30.286V26.996H25.7753V26.59H29.7093V29.992L29.7373 29.978V30.496C29.2893 30.7667 28.8273 30.9627 28.3513 31.084C27.8847 31.2147 27.3713 31.28 26.8113 31.28C25.8313 31.28 24.9307 31.042 24.1093 30.566C23.288 30.0807 22.6347 29.418 22.1493 28.578C21.6733 27.7287 21.4353 26.7767 21.4353 25.722C21.4353 24.7047 21.6827 23.776 22.1773 22.936C22.6813 22.096 23.3487 21.4333 24.1793 20.948C25.0193 20.4627 25.9107 20.22 26.8533 20.22C27.5067 20.22 28.0247 20.2807 28.4073 20.402C28.79 20.514 29.2333 20.7147 29.7373 21.004V21.522C29.2613 21.1953 28.818 20.9667 28.4073 20.836C28.006 20.696 27.502 20.626 26.8953 20.626ZM33.5914 20.5H34.0534V30.594H37.3014V31H33.5914V20.5Z" fill="white"/>
<path d="M15.5073 20.5V20H15.0073V20.5H15.5073ZM15.9693 20.5H16.4693V20H15.9693V20.5ZM15.9693 30.594H15.4693V31.094H15.9693V30.594ZM19.2173 30.594H19.7173V30.094H19.2173V30.594ZM19.2173 31V31.5H19.7173V31H19.2173ZM15.5073 31H15.0073V31.5H15.5073V31ZM15.5073 21H15.9693V20H15.5073V21ZM15.4693 20.5V30.594H16.4693V20.5H15.4693ZM15.9693 31.094H19.2173V30.094H15.9693V31.094ZM18.7173 30.594V31H19.7173V30.594H18.7173ZM19.2173 30.5H15.5073V31.5H19.2173V30.5ZM16.0073 31V20.5H15.0073V31H16.0073ZM24.3613 21.34L24.624 21.7655L24.6254 21.7646L24.3613 21.34ZM22.5553 23.23L22.12 22.9841L22.119 22.9859L22.5553 23.23ZM22.5693 28.312L22.1352 28.5601L22.5693 28.312ZM24.3473 30.188L24.0799 30.6105L24.0862 30.6144L24.3473 30.188ZM28.0993 30.734L27.9861 30.247L27.9835 30.2476L28.0993 30.734ZM29.2473 30.286L29.493 30.7215L29.7473 30.578V30.286H29.2473ZM29.2473 26.996H29.7473V26.496H29.2473V26.996ZM25.7753 26.996H25.2753V27.496H25.7753V26.996ZM25.7753 26.59V26.09H25.2753V26.59H25.7753ZM29.7093 26.59H30.2093V26.09H29.7093V26.59ZM29.7093 29.992H29.2093V30.801L29.9329 30.4392L29.7093 29.992ZM29.7373 29.978H30.2373V29.169L29.5137 29.5308L29.7373 29.978ZM29.7373 30.496L29.9959 30.924L30.2373 30.7781V30.496H29.7373ZM28.3513 31.084L28.2278 30.5994L28.2165 30.6025L28.3513 31.084ZM24.1093 30.566L23.855 30.9965L23.8586 30.9986L24.1093 30.566ZM22.1493 28.578L21.7131 28.8225L21.7164 28.8281L22.1493 28.578ZM22.1773 22.936L21.7486 22.6787L21.7465 22.6823L22.1773 22.936ZM24.1793 20.948L23.9292 20.5151L23.9271 20.5163L24.1793 20.948ZM28.4073 20.402L28.2562 20.8787L28.2669 20.8819L28.4073 20.402ZM29.7373 21.004H30.2373V20.7145L29.9863 20.5704L29.7373 21.004ZM29.7373 21.522L29.4544 21.9343L30.2373 22.4716V21.522H29.7373ZM28.4073 20.836L28.2426 21.3083L28.2557 21.3125L28.4073 20.836ZM26.8953 20.126C25.8805 20.126 24.9439 20.3888 24.0973 20.9154L24.6254 21.7646C25.3094 21.3392 26.0622 21.126 26.8953 21.126V20.126ZM24.0987 20.9145C23.269 21.4267 22.6084 22.1193 22.12 22.9841L22.9907 23.4759C23.3983 22.7541 23.9417 22.1866 24.624 21.7655L24.0987 20.9145ZM22.119 22.9859C21.6383 23.8451 21.3973 24.7739 21.3973 25.764H22.3973C22.3973 24.9435 22.5951 24.1829 22.9917 23.4741L22.119 22.9859ZM21.3973 25.764C21.3973 26.7645 21.6435 27.6995 22.1352 28.5601L23.0035 28.0639C22.5992 27.3565 22.3973 26.5928 22.3973 25.764H21.3973ZM22.1352 28.5601C22.6223 29.4124 23.2712 30.0986 24.0799 30.6105L24.6147 29.7655C23.9488 29.344 23.4124 28.7796 23.0035 28.0639L22.1352 28.5601ZM24.0862 30.6144C24.9098 31.1189 25.8026 31.374 26.7553 31.374V30.374C25.9907 30.374 25.2782 30.1718 24.6085 29.7616L24.0862 30.6144ZM26.7553 31.374C27.2891 31.374 27.7771 31.3247 28.2152 31.2204L27.9835 30.2476C27.6375 30.33 27.2296 30.374 26.7553 30.374V31.374ZM28.2126 31.221C28.661 31.1167 29.0881 30.9499 29.493 30.7215L29.0017 29.8505C28.6785 30.0328 28.3404 30.1646 27.9861 30.247L28.2126 31.221ZM29.7473 30.286V26.996H28.7473V30.286H29.7473ZM29.2473 26.496H25.7753V27.496H29.2473V26.496ZM26.2753 26.996V26.59H25.2753V26.996H26.2753ZM25.7753 27.09H29.7093V26.09H25.7753V27.09ZM29.2093 26.59V29.992H30.2093V26.59H29.2093ZM29.9329 30.4392L29.9609 30.4252L29.5137 29.5308L29.4857 29.5448L29.9329 30.4392ZM29.2373 29.978V30.496H30.2373V29.978H29.2373ZM29.4788 30.068C29.07 30.315 28.6533 30.491 28.2278 30.5995L28.4748 31.5685C29.0014 31.4343 29.5087 31.2183 29.9959 30.924L29.4788 30.068ZM28.2165 30.6025C27.7999 30.7192 27.3327 30.78 26.8113 30.78V31.78C27.41 31.78 27.9694 31.7102 28.4862 31.5655L28.2165 30.6025ZM26.8113 30.78C25.9164 30.78 25.1027 30.5638 24.3601 30.1334L23.8586 30.9986C24.7587 31.5202 25.7463 31.78 26.8113 31.78V30.78ZM24.3637 30.1355C23.6177 29.6947 23.0253 29.0947 22.5823 28.3279L21.7164 28.8281C22.244 29.7413 22.9583 30.4666 23.855 30.9965L24.3637 30.1355ZM22.5855 28.3336C22.1548 27.565 21.9353 26.6984 21.9353 25.722H20.9353C20.9353 26.8549 21.1919 27.8923 21.7132 28.8224L22.5855 28.3336ZM21.9353 25.722C21.9353 24.7898 22.1608 23.9494 22.6082 23.1897L21.7465 22.6823C21.2045 23.6026 20.9353 24.6195 20.9353 25.722H21.9353ZM22.6061 23.1932C23.0677 22.4239 23.6748 21.8218 24.4316 21.3797L23.9271 20.5163C23.0225 21.0448 22.295 21.7681 21.7486 22.6788L22.6061 23.1932ZM24.4295 21.3809C25.1958 20.9382 26.0011 20.72 26.8533 20.72V19.72C25.8202 19.72 24.8429 19.9871 23.9292 20.5151L24.4295 21.3809ZM26.8533 20.72C27.4833 20.72 27.9433 20.7794 28.2562 20.8786L28.5585 19.9254C28.106 19.7819 27.5301 19.72 26.8533 19.72V20.72ZM28.2669 20.8819C28.5988 20.979 29.0046 21.1599 29.4884 21.4376L29.9863 20.5704C29.4621 20.2695 28.9812 20.049 28.5478 19.9221L28.2669 20.8819ZM29.2373 21.004V21.522H30.2373V21.004H29.2373ZM30.0203 21.1097C29.5167 20.7641 29.0291 20.5091 28.5589 20.3595L28.2557 21.3125C28.607 21.4242 29.006 21.6265 29.4544 21.9343L30.0203 21.1097ZM28.572 20.3639C28.1004 20.1994 27.5362 20.126 26.8953 20.126V21.126C27.4679 21.126 27.9116 21.1926 28.2427 21.3081L28.572 20.3639ZM33.5914 20.5V20H33.0914V20.5H33.5914ZM34.0534 20.5H34.5534V20H34.0534V20.5ZM34.0534 30.594H33.5534V31.094H34.0534V30.594ZM37.3014 30.594H37.8014V30.094H37.3014V30.594ZM37.3014 31V31.5H37.8014V31H37.3014ZM33.5914 31H33.0914V31.5H33.5914V31ZM33.5914 21H34.0534V20H33.5914V21ZM33.5534 20.5V30.594H34.5534V20.5H33.5534ZM34.0534 31.094H37.3014V30.094H34.0534V31.094ZM36.8014 30.594V31H37.8014V30.594H36.8014ZM37.3014 30.5H33.5914V31.5H37.3014V30.5ZM34.0914 31V20.5H33.0914V31H34.0914Z" fill="#FF00C4" mask="url(#path-4-outside-1_0_1)"/>
</g>
<g filter="url(#filter1_dd_0_1)">
<rect x="6.375" y="6.375" width="39.25" height="39.25" stroke="white" stroke-opacity="0.47" stroke-width="0.75"/>
</g>
<defs>
<filter id="filter0_dd_0_1" x="11.0073" y="15.72" width="30.7939" height="20.0601" filterUnits="userSpaceOnUse" color-interpolation-filters="sRGB">
<feFlood flood-opacity="0" result="BackgroundImageFix"/>
<feColorMatrix in="SourceAlpha" type="matrix" values="0 0 0 0 0 0 0 0 0 0 0 0 0 0 0 0 0 0 127 0" result="hardAlpha"/>
<feOffset/>
<feGaussianBlur stdDeviation="2"/>
<feComposite in2="hardAlpha" operator="out"/>
<feColorMatrix type="matrix" values="0 0 0 0 1 0 0 0 0 0 0 0 0 0 0.766667 0 0 0 1 0"/>
<feBlend mode="normal" in2="BackgroundImageFix" result="effect1_dropShadow_0_1"/>
<feColorMatrix in="SourceAlpha" type="matrix" values="0 0 0 0 0 0 0 0 0 0 0 0 0 0 0 0 0 0 127 0" result="hardAlpha"/>
<feOffset/>
<feGaussianBlur stdDeviation="2"/>
<feComposite in2="hardAlpha" operator="out"/>
<feColorMatrix type="matrix" values="0 0 0 0 1 0 0 0 0 0 0 0 0 0 0.766667 0 0 0 1 0"/>
<feBlend mode="normal" in2="effect1_dropShadow_0_1" result="effect2_dropShadow_0_1"/>
<feBlend mode="normal" in="SourceGraphic" in2="effect2_dropShadow_0_1" result="shape"/>
</filter>
<filter id="filter1_dd_0_1" x="0" y="0" width="52" height="52" filterUnits="userSpaceOnUse" color-interpolation-filters="sRGB">
<feFlood flood-opacity="0" result="BackgroundImageFix"/>
<feColorMatrix in="SourceAlpha" type="matrix" values="0 0 0 0 0 0 0 0 0 0 0 0 0 0 0 0 0 0 127 0" result="hardAlpha"/>
<feMorphology radius="1" operator="dilate" in="SourceAlpha" result="effect1_dropShadow_0_1"/>
<feOffset/>
<feGaussianBlur stdDeviation="2.5"/>
<feColorMatrix type="matrix" values="0 0 0 0 0.124349 0 0 0 0 0.620551 0 0 0 0 1 0 0 0 1 0"/>
<feBlend mode="normal" in2="BackgroundImageFix" result="effect1_dropShadow_0_1"/>
<feColorMatrix in="SourceAlpha" type="matrix" values="0 0 0 0 0 0 0 0 0 0 0 0 0 0 0 0 0 0 127 0" result="hardAlpha"/>
<feMorphology radius="1" operator="dilate" in="SourceAlpha" result="effect2_dropShadow_0_1"/>
<feOffset/>
<feGaussianBlur stdDeviation="2.5"/>
<feColorMatrix type="matrix" values="0 0 0 0 0.124349 0 0 0 0 0.620551 0 0 0 0 1 0 0 0 1 0"/>
<feBlend mode="normal" in2="effect1_dropShadow_0_1" result="effect2_dropShadow_0_1"/>
<feBlend mode="normal" in="SourceGraphic" in2="effect2_dropShadow_0_1" result="shape"/>
</filter>
</defs>
</svg>
